<?xml version="1.0" standalone="no"?>
<!DOCTYPE svg PUBLIC "-//W3C//DTD SVG 20010904//EN"
 "http://www.w3.org/TR/2001/REC-SVG-20010904/DTD/svg10.dtd">
<svg version="1.0" xmlns="http://www.w3.org/2000/svg"
 width="300.000000pt" height="140.000000pt" viewBox="0 0 300.000000 140.000000"
 preserveAspectRatio="xMidYMid meet">
<metadata>
Created by potrace 1.10, written by Peter Selinger 2001-2011
</metadata>
<g transform="translate(0.000000,140.000000) scale(0.100000,-0.100000)"
fill="#000000" stroke="none">
<path d="M818 1343 c7 -65 12 -67 12 -5 0 29 -4 52 -9 52 -5 0 -6 -21 -3 -47z"/>
<path d="M562 1357 c-35 -41 -16 -97 32 -97 30 0 46 18 46 51 0 47 -52 78 -78
46z m20 -14 c-10 -4 -8 -9 5 -19 22 -16 33 -18 33 -3 0 5 -4 7 -10 4 -5 -3
-10 3 -10 15 0 19 2 20 15 6 8 -8 15 -27 15 -43 0 -20 -3 -24 -9 -14 -5 8 -20
12 -38 9 -20 -3 -30 0 -30 9 0 8 7 11 15 8 11 -4 12 -2 4 8 -9 10 -8 17 0 25
6 6 14 9 17 5 3 -3 0 -8 -7 -10z"/>
<path d="M50 1320 c0 -23 4 -30 20 -30 23 0 24 1 8 35 -15 34 -28 32 -28 -5z"/>
<path d="M310 1321 c0 -27 4 -31 26 -31 22 0 25 4 22 28 -2 19 -9 28 -25 30
-20 3 -23 -1 -23 -27z"/>
<path d="M264 1325 c-10 -24 3 -45 22 -38 16 6 16 7 -2 14 -17 7 -17 8 -1 8
21 1 22 17 2 25 -9 3 -18 -1 -21 -9z"/>
<path d="M130 1312 c0 -24 8 -32 26 -25 22 8 17 43 -6 43 -13 0 -20 -7 -20
-18z"/>
<path d="M426 1314 c16 -13 16 -15 2 -10 -10 3 -18 1 -18 -4 0 -6 9 -10 20
-10 13 0 20 7 20 20 0 14 -7 20 -22 20 -21 0 -21 0 -2 -16z"/>
<path d="M880 1316 c0 -9 21 -13 66 -13 43 -1 64 3 61 10 -2 6 -22 12 -45 12
-23 1 -38 -3 -35 -9 4 -5 1 -6 -8 0 -22 13 -39 13 -39 0z"/>
<path d="M1180 1314 c0 -9 10 -13 25 -12 14 1 24 7 22 13 -5 15 -47 14 -47 -1z"/>
<path d="M1286 1315 c-4 -11 1 -15 19 -15 17 0 25 6 25 18 0 14 -2 15 -10 2
-6 -10 -10 -11 -10 -2 0 17 -17 15 -24 -3z"/>
<path d="M1370 1318 c0 -14 9 -18 40 -18 23 0 40 5 40 11 0 6 -7 9 -15 5 -8
-3 -15 -2 -15 3 0 4 -7 8 -15 8 -8 0 -15 -5 -15 -11 0 -6 -5 -4 -10 4 -8 13
-10 12 -10 -2z"/>
<path d="M1605 1321 c-11 -10 -4 -23 10 -17 8 3 15 1 15 -4 0 -6 5 -10 10 -10
6 0 10 8 10 18 0 16 -33 26 -45 13z"/>
<path d="M1800 1316 c0 -16 48 -28 57 -14 3 6 -1 14 -8 19 -21 13 -49 11 -49
-5z"/>
<path d="M2620 1320 c12 -8 11 -10 -7 -10 -13 0 -23 -5 -23 -11 0 -6 16 -9 37
-7 25 2 37 8 39 21 2 13 -5 17 -29 17 -24 0 -28 -3 -17 -10z"/>
<path d="M907 1283 c18 -2 50 -2 70 0 21 2 7 4 -32 4 -38 0 -55 -2 -38 -4z"/>
<path d="M0 1210 c0 -13 7 -20 19 -20 34 0 36 -61 3 -87 -9 -7 -12 -13 -6 -13
5 0 2 -5 -6 -10 -12 -8 -11 -10 8 -10 18 0 22 -6 22 -30 0 -18 -6 -33 -15 -36
-21 -8 -19 -31 4 -39 16 -5 18 -11 11 -40 -4 -19 -5 -36 -2 -39 3 -4 -4 -6
-16 -6 -12 0 -22 -4 -22 -10 0 -5 9 -10 20 -10 16 0 20 -7 20 -30 0 -21 -5
-30 -16 -30 -10 0 -14 -6 -11 -14 3 -8 1 -17 -6 -20 -7 -2 -2 -5 11 -5 30 -1
30 -43 0 -73 -21 -21 -21 -21 -1 -29 28 -10 30 -69 2 -69 -25 0 -25 -27 1 -35
28 -9 29 -65 1 -65 -25 0 -17 -36 10 -43 29 -8 26 -55 -3 -59 -30 -4 -35 -34
-8 -41 27 -7 28 -53 0 -62 -26 -8 -26 -32 0 -40 27 -9 27 -55 0 -62 -27 -7
-27 -43 0 -43 16 0 20 -7 20 -30 0 -23 -4 -30 -20 -30 -13 0 -20 -7 -20 -20 0
-13 7 -20 20 -20 13 0 20 -7 20 -20 0 -11 5 -20 10 -20 6 0 11 26 12 58 1 31
3 71 4 87 1 17 2 81 3 143 l1 114 168 -4 c160 -3 168 -4 168 -23 0 -11 -5 -24
-10 -28 -6 -4 1 -5 17 -1 23 5 26 4 20 -12 -4 -11 -3 -15 4 -11 6 4 14 0 17
-9 9 -24 8 -26 -14 -14 -11 6 -20 7 -20 3 0 -4 -7 0 -14 10 -12 15 -15 15 -26
2 -10 -13 -9 -15 9 -15 11 0 21 -5 21 -11 0 -6 -7 -9 -15 -5 -8 3 -15 1 -15
-5 0 -6 -4 -7 -10 -4 -6 4 -7 -1 -3 -11 4 -11 3 -15 -4 -11 -7 4 -18 -12 -29
-40 -10 -27 -24 -57 -31 -69 -11 -17 -10 -24 2 -40 14 -18 14 -18 15 8 0 15 5
30 10 33 6 4 8 11 5 16 -4 5 -2 9 3 9 6 0 8 8 5 18 -2 10 5 28 17 42 20 24 21
24 26 3 3 -11 16 -25 29 -31 19 -9 22 -8 18 7 -2 9 -14 21 -25 26 -12 6 -24
16 -26 24 -4 11 0 12 14 6 11 -5 33 -8 49 -8 17 0 33 -4 37 -10 4 -6 10 -9 13
-5 7 7 -51 125 -66 134 -23 14 7 20 83 18 l83 -3 0 -196 0 -195 34 0 c25 0 32
4 28 15 -4 8 -2 17 4 21 6 3 8 12 5 19 -3 8 0 16 7 19 7 2 3 5 -8 6 -20 1 -20
1 0 10 16 7 17 9 3 9 -27 1 -10 41 17 41 21 0 23 -4 23 -52 -1 -29 -6 -56 -12
-60 -7 -5 -6 -8 4 -8 13 0 13 -1 0 -10 -12 -8 -11 -10 6 -10 11 0 25 5 32 12
7 7 12 9 12 4 0 -4 7 -1 15 7 18 18 56 11 48 -9 -3 -8 1 -14 11 -14 14 0 16
15 16 105 0 87 3 105 15 105 19 0 19 26 0 34 -12 4 -15 23 -15 82 0 64 2 75
15 70 11 -4 15 1 15 19 0 16 -6 25 -15 25 -13 0 -15 24 -16 153 0 83 -3 253
-5 376 -3 124 -3 230 0 237 7 19 46 5 46 -17 0 -10 -5 -21 -10 -24 -15 -9 0
-27 17 -21 10 4 13 2 10 -8 -4 -10 -1 -13 8 -9 8 3 12 9 9 14 -3 5 5 9 18 9
20 0 19 2 -10 17 -20 10 -32 22 -30 32 3 13 19 17 77 19 41 2 87 -2 103 -7 18
-6 26 -7 23 -1 -4 6 -1 10 4 10 6 0 11 -4 11 -10 0 -5 7 -10 15 -10 8 0 15 5
15 11 0 7 10 9 28 5 32 -8 37 -9 120 -4 34 2 63 1 63 -2 3 -12 7 -132 8 -226
l1 -102 120 -1 c70 0 118 3 115 9 -3 5 -1 11 4 15 6 3 7 13 4 22 -5 12 -2 15
10 10 11 -4 17 -1 17 8 0 20 -21 30 -31 14 -5 -8 -9 41 -9 122 l0 137 25 -2
c16 0 23 -6 20 -13 -2 -8 4 -13 14 -13 11 0 21 6 24 13 2 6 13 -8 25 -33 12
-25 21 -41 22 -36 0 5 10 1 23 -10 12 -10 8 -3 -9 16 l-30 35 23 22 c20 20 24
20 32 5 6 -11 4 -20 -7 -28 -10 -7 -14 -16 -10 -20 5 -4 17 1 28 11 14 13 17
22 10 29 -18 18 -11 30 8 13 20 -19 52 -23 52 -7 0 6 -5 10 -12 10 -6 0 -9 3
-5 6 3 3 13 2 22 -4 15 -8 14 -11 -9 -29 -26 -21 -34 -43 -16 -43 6 0 22 12
36 27 14 15 25 23 24 18 -5 -25 3 -37 9 -15 5 18 3 27 -8 32 -11 5 -8 7 10 7
23 1 26 -2 21 -24 -2 -15 0 -25 7 -25 7 0 9 5 6 10 -7 11 -5 12 45 15 19 2 35
4 35 5 0 1 18 3 40 5 22 2 48 6 58 10 15 6 17 -1 17 -81 1 -67 3 -85 11 -71 8
14 14 16 25 6 16 -13 17 -19 5 -38 -8 -12 -12 -12 -25 -2 -14 12 -16 9 -16
-28 0 -39 -11 -53 -25 -31 -4 6 -11 8 -16 4 -16 -9 -79 16 -79 33 0 9 6 13 15
9 9 -3 15 0 15 9 0 8 -9 15 -20 15 -11 0 -20 -4 -20 -10 0 -5 -7 -10 -15 -10
-9 0 -12 -6 -9 -15 4 -9 0 -15 -7 -15 -9 -1 -8 -4 4 -11 9 -6 14 -15 11 -21
-4 -6 0 -14 7 -19 9 -6 10 -9 2 -9 -6 0 -15 4 -18 10 -3 5 -16 15 -28 21 -18
9 -20 9 -9 -2 14 -15 16 -39 3 -39 -5 0 -17 7 -25 16 -15 14 -16 13 -17 -8 0
-13 -3 -17 -6 -10 -6 15 -23 6 -23 -12 0 -10 19 -14 70 -15 39 0 70 3 70 9 0
5 7 6 17 3 10 -4 14 -2 10 4 -4 6 0 19 10 28 16 16 17 16 30 -1 12 -17 13 -16
13 7 1 22 2 23 14 6 11 -14 15 -15 19 -5 3 7 6 -200 6 -459 l1 -473 30 0 c20
0 30 5 30 15 0 10 10 15 29 15 16 0 31 6 34 12 3 10 7 10 20 0 9 -8 13 -20 10
-28 -3 -8 -1 -14 5 -14 5 0 12 9 15 20 3 13 10 18 21 14 9 -3 14 -10 11 -14
-7 -12 19 -17 95 -19 65 -2 66 -2 81 31 19 42 14 79 -9 71 -14 -6 -15 -5 -2 9
13 14 16 14 26 0 10 -14 13 -14 28 1 9 9 23 14 31 11 22 -9 18 -44 -7 -53 -19
-7 -19 -8 -4 -14 10 -4 24 -1 32 8 9 8 23 15 33 15 9 0 22 5 29 12 9 9 15 9
25 -1 10 -10 9 -11 -4 -6 -12 4 -19 -2 -24 -22 -9 -30 -12 -40 -14 -48 0 -2
-12 0 -26 5 -16 6 -25 6 -25 0 0 -5 -18 -9 -40 -8 -22 1 -43 -2 -47 -5 -3 -4
35 -6 85 -5 90 2 92 3 101 30 6 15 14 28 18 28 13 0 15 51 3 65 -6 7 -21 11
-33 9 -13 -2 -16 -1 -7 2 25 11 28 25 13 55 -15 30 -33 39 -33 15 0 -20 -52
-28 -66 -11 -8 10 -14 11 -22 3 -15 -15 -42 -2 -42 22 0 15 7 20 25 20 14 0
25 -3 25 -8 0 -13 84 0 95 15 15 20 62 7 68 -18 7 -25 27 -25 27 1 0 11 5 20
11 20 5 0 8 4 5 9 -3 5 -16 7 -28 3 -17 -4 -20 -2 -15 13 6 15 3 16 -19 11
-19 -5 -30 -2 -40 11 -12 16 -15 16 -24 3 -5 -8 -10 -25 -10 -38 0 -18 -5 -23
-22 -20 -32 4 -31 40 1 48 20 5 21 7 9 17 -12 10 -19 9 -36 -8 -12 -11 -22
-15 -22 -9 0 5 -7 10 -16 10 -8 0 -12 -5 -9 -10 4 -6 -7 -15 -24 -21 -17 -6
-31 -14 -31 -19 0 -7 -52 -32 -67 -32 -4 0 -14 -5 -22 -11 -12 -9 -13 -9 -7 1
7 12 -4 16 -31 13 -9 -1 -14 13 -14 41 -2 30 -3 35 -6 15 -2 -15 -11 -27 -19
-27 -18 0 -18 -9 1 -31 24 -25 10 -69 -21 -69 -17 0 -24 -6 -24 -20 0 -15 7
-20 29 -20 31 0 41 -13 33 -42 -9 -35 -88 -21 -103 18 -9 25 -33 32 -45 12 -4
-6 -3 -8 2 -5 6 3 16 2 24 -4 13 -7 13 -9 0 -9 -13 0 -13 -1 0 -10 13 -9 13
-11 0 -19 -18 -12 -33 -3 -26 15 4 10 -2 14 -19 14 -21 0 -25 5 -25 29 0 26 4
30 40 36 44 7 53 22 18 27 -15 2 -24 11 -26 26 -3 19 1 22 27 22 28 0 31 -3
32 -32 0 -18 3 -26 6 -18 2 8 10 26 16 39 9 19 8 25 -6 35 -9 7 -15 15 -12 18
2 2 7 22 10 44 3 21 7 44 9 49 2 6 0 19 -4 30 -4 11 -4 30 1 43 5 12 5 22 0
22 -12 0 -19 58 -9 68 5 5 5 17 2 27 -7 18 -8 18 -15 -1 -4 -10 -8 -32 -8 -49
-1 -23 -4 -27 -11 -15 -8 13 -10 12 -10 -3 0 -10 -5 -15 -10 -12 -6 4 -9 9 -6
13 2 4 0 16 -5 27 -6 17 -8 17 -8 3 -1 -30 -26 -20 -28 11 -2 24 2 30 25 34
30 6 43 0 25 -11 -8 -5 -7 -12 3 -26 13 -19 14 -19 14 7 0 15 8 35 18 45 20
20 23 53 4 60 -16 5 -16 24 1 41 14 14 14 15 16 81 1 36 7 56 22 71 12 12 25
17 29 13 15 -16 15 -61 1 -77 -11 -14 -11 -18 1 -22 12 -5 13 -15 8 -46 -4
-22 -10 -42 -13 -46 -3 -3 1 -12 9 -20 8 -9 13 -22 10 -29 -3 -7 -1 -16 5 -19
5 -4 7 -10 5 -14 -3 -4 5 -7 17 -6 12 1 25 -2 28 -7 3 -5 17 -4 31 3 22 9 30
8 54 -10 16 -11 40 -23 54 -25 14 -3 27 -5 30 -6 3 -1 20 -1 38 0 26 1 35 -3
39 -19 5 -19 12 -21 104 -21 55 0 101 4 104 10 4 6 11 8 16 5 15 -10 10 20 -7
41 -13 16 -15 16 -10 2 4 -13 -2 -20 -19 -24 -32 -8 -59 2 -52 20 3 8 -2 16
-14 19 -10 3 -19 13 -19 22 0 9 -4 14 -9 11 -11 -7 -41 3 -41 13 0 11 50 32
61 26 5 -4 9 -1 9 4 0 15 43 14 57 0 9 -9 16 -8 27 4 12 12 13 17 3 20 -9 4
-9 8 2 15 15 11 8 16 -31 26 -21 5 -28 3 -28 -8 0 -15 -89 -65 -105 -60 -6 2
-10 -10 -10 -28 0 -38 -22 -49 -34 -16 -6 17 -5 25 8 30 13 6 12 7 -4 5 -15
-2 -19 -9 -17 -29 3 -29 -14 -46 -30 -30 -7 7 -17 7 -31 -1 -15 -9 -21 -9 -24
0 -2 7 -11 9 -19 6 -19 -7 -44 15 -44 38 0 11 -5 19 -12 19 -6 0 -8 3 -5 7 4
3 2 12 -5 20 -16 20 -2 28 27 15 15 -7 22 -17 19 -25 -3 -8 1 -17 9 -20 25 -9
28 31 4 48 -23 16 -18 28 16 30 12 1 23 9 25 17 2 12 -3 14 -24 10 -38 -7 -75
-27 -67 -36 4 -4 0 -4 -10 0 -11 4 -17 1 -18 -7 -2 -25 -6 -64 -7 -76 -1 -7
-16 -12 -37 -11 -30 1 -35 5 -35 24 0 17 4 22 15 18 17 -7 50 22 36 31 -5 3
-12 1 -16 -5 -3 -5 -13 -10 -21 -10 -12 0 -14 33 -14 205 0 176 2 205 15 205
8 0 15 -5 15 -11 0 -6 14 -1 30 11 17 12 30 28 30 36 0 16 -26 19 -35 4 -4 -6
-15 -8 -25 -5 -12 4 -20 0 -23 -12 -3 -10 -5 2 -6 27 -1 50 -12 75 -31 68 -9
-3 -8 -8 4 -21 10 -9 15 -21 11 -26 -5 -10 -18 -122 -19 -171 0 -14 3 -35 7
-46 10 -28 -20 -37 -54 -18 -22 12 -22 13 -4 14 20 1 20 1 0 9 -24 10 -42 4
-49 -15 -3 -9 -1 -12 4 -9 6 3 10 1 10 -4 0 -6 -9 -11 -20 -11 -15 0 -20 7
-21 28 0 15 -3 21 -6 15 -9 -23 -28 -14 -40 17 -10 28 -9 31 13 36 13 3 35 3
49 0 18 -5 25 -2 25 8 0 8 -10 16 -22 18 -35 5 -34 28 0 28 24 0 32 -5 35 -22
3 -17 5 -15 6 9 0 17 7 33 14 36 10 3 10 9 0 26 -17 27 -16 51 2 75 13 17 12
21 -3 32 -15 12 -14 13 13 14 17 1 49 3 71 5 31 4 43 1 48 -10 3 -8 1 -15 -5
-15 -6 0 -8 -9 -4 -20 5 -15 2 -20 -11 -20 -10 0 -14 -3 -10 -7 4 -4 23 -6 41
-4 20 1 41 -3 48 -11 18 -18 31 -85 17 -93 -5 -3 -10 -13 -10 -21 0 -8 5 -12
10 -9 15 9 12 -42 -5 -74 -14 -29 -40 -45 -55 -36 -5 3 -11 1 -15 -5 -3 -5 1
-10 9 -10 23 0 19 -26 -6 -44 -26 -19 -18 -32 11 -17 11 6 31 12 45 13 22 2
23 4 12 18 -26 30 -26 38 -1 42 13 3 22 1 19 -3 -3 -5 0 -9 5 -9 6 0 11 5 11
10 0 6 9 10 20 10 14 0 20 -7 20 -22 0 -21 19 -64 20 -45 0 4 6 2 13 -5 9 -8
12 -23 7 -43 -6 -27 -4 -30 19 -32 14 0 34 3 44 8 13 7 19 6 23 -6 3 -8 14
-15 24 -15 11 0 22 -5 25 -10 10 -16 55 -12 55 5 0 9 -9 15 -25 15 -16 0 -25
6 -25 16 0 13 -3 14 -14 5 -10 -9 -16 -8 -26 4 -8 10 -25 15 -43 13 -17 -2
-32 2 -34 10 -3 7 1 10 11 6 32 -12 16 23 -21 47 -33 21 -38 30 -41 69 -4 65
-9 75 -27 60 -18 -15 -30 -7 -22 14 4 10 13 13 24 10 14 -4 13 -1 -5 14 -30
27 -28 45 9 76 20 17 25 26 15 26 -9 0 -16 -5 -16 -11 0 -8 -5 -8 -15 1 -16
13 -21 55 -6 45 5 -3 12 -1 15 4 15 24 59 -4 51 -32 -5 -21 -4 -21 7 1 6 13
17 21 24 18 8 -3 11 0 8 9 -3 7 4 18 15 25 23 12 27 7 33 -40 l3 -25 17 30
c10 17 17 26 18 22 0 -4 9 -3 20 3 11 6 18 15 16 19 -8 13 56 27 99 21 l39 -5
1 -58 c1 -40 -2 -56 -10 -53 -21 8 -36 -10 -38 -48 -2 -27 -11 -44 -32 -62
-17 -14 -24 -23 -17 -19 6 3 12 1 12 -4 0 -6 7 -11 15 -11 31 0 2 -28 -33 -32
-59 -8 -83 9 -41 28 l21 10 -24 29 c-27 32 -42 75 -27 75 5 0 9 7 9 15 0 17
25 20 35 5 3 -5 12 -10 18 -10 8 0 7 3 -2 9 -8 5 -9 10 -2 12 6 2 -3 12 -20
22 -24 13 -30 14 -26 3 8 -20 -3 -27 -24 -15 -13 6 -25 6 -39 -3 -16 -10 -24
-10 -40 0 -23 14 -26 4 -6 -23 8 -11 19 -16 30 -12 12 5 16 0 16 -18 0 -16 6
-25 15 -25 17 0 19 -9 6 -29 -6 -9 -16 -11 -27 -6 -29 11 -64 14 -64 5 0 -5
25 -12 55 -15 l55 -7 0 -38 c0 -30 5 -40 20 -45 28 -9 25 -25 -4 -25 -18 0
-23 -4 -19 -18 3 -12 -4 -21 -24 -29 l-28 -11 28 -1 c19 -1 26 -5 21 -13 -5
-7 -3 -8 7 -2 8 5 21 7 31 6 9 -2 19 2 23 8 10 16 25 12 19 -5 -4 -8 -1 -15 5
-15 6 0 11 5 11 11 0 6 7 9 15 5 8 -3 15 0 15 6 0 9 3 9 12 0 7 -7 17 -12 24
-12 14 0 25 38 13 46 -5 3 -9 1 -9 -4 0 -5 -10 -10 -22 -10 -13 0 -30 -1 -38
-3 -10 -3 -15 3 -14 17 0 13 -5 20 -12 17 -6 -2 -14 3 -17 11 -7 19 -6 19 27
6 17 -6 24 -14 20 -25 -3 -8 -1 -15 6 -15 6 0 8 4 5 10 -3 5 3 10 15 10 17 0
19 2 8 14 -7 8 -17 13 -22 13 -5 -1 -11 4 -13 11 -6 16 12 15 53 -4 33 -16 34
-18 34 -74 0 -42 -4 -59 -15 -64 -8 -3 -15 -12 -15 -21 0 -8 7 -15 15 -15 22
0 18 -36 -8 -73 -29 -41 -35 -46 -59 -39 -18 4 -19 2 -9 -17 7 -11 15 -21 20
-21 11 0 36 31 44 52 11 31 28 19 25 -17 -1 -19 -7 -35 -13 -35 -5 0 -4 -4 4
-9 7 -5 22 -6 33 -3 17 4 19 0 16 -34 -2 -22 -8 -38 -14 -37 -7 1 -14 -7 -17
-18 -4 -15 -1 -19 11 -15 20 6 37 -3 45 -24 3 -8 6 0 6 18 1 39 21 43 22 5 l1
-28 8 30 c7 27 8 26 9 -15 0 -26 -3 -40 -7 -32 -7 10 -14 8 -32 -8 -14 -12
-31 -18 -44 -14 -17 4 -22 0 -23 -15 -1 -16 4 -21 21 -21 19 0 23 -5 23 -30 0
-23 -5 -30 -19 -30 -12 0 -19 6 -17 18 3 33 -1 36 -17 14 -13 -18 -19 -21 -30
-11 -9 7 -14 8 -14 1 0 -18 20 -24 35 -12 12 10 14 0 14 -70 0 -57 -4 -80 -12
-77 -7 2 -20 0 -29 -5 -12 -6 -18 -5 -18 2 0 6 -4 9 -9 6 -5 -4 -21 -2 -35 4
-14 5 -28 5 -31 1 -3 -5 2 -11 10 -15 18 -7 19 -29 3 -56 -7 -10 -9 -23 -5
-27 5 -4 12 -1 17 7 5 8 25 15 45 16 22 1 41 8 50 20 14 18 14 18 15 -8 0 -21
-5 -28 -20 -28 -14 0 -20 -7 -20 -21 0 -18 2 -20 16 -8 13 10 17 10 24 0 4 -8
13 -10 19 -7 6 4 9 11 6 16 -3 4 2 10 10 14 8 3 17 1 20 -4 3 -4 -1 -11 -7
-13 -7 -3 -3 -6 9 -6 15 -1 21 3 17 13 -7 18 8 27 26 15 12 -7 13 -11 2 -18
-11 -7 -11 -9 2 -14 12 -5 16 0 16 23 0 27 -3 30 -31 30 -27 0 -30 3 -27 27 2
20 9 29 26 31 18 3 23 -1 20 -15 -2 -10 -7 -21 -13 -25 -6 -4 -2 -8 8 -8 15 0
17 10 17 81 0 81 0 81 -24 75 -19 -5 -25 -1 -30 17 -9 33 -8 37 10 37 8 0 13
-4 10 -9 -4 -5 3 -7 14 -4 30 8 24 21 -12 26 l-33 4 33 1 32 2 0 235 c0 159
-3 235 -11 235 -5 0 -7 -4 -4 -10 3 -5 1 -10 -4 -10 -6 0 -11 6 -11 13 0 8 -4
7 -10 -3 -6 -10 -10 -11 -10 -2 0 6 -11 12 -24 12 -26 0 -39 30 -29 68 6 23
23 31 23 11 0 -17 50 -61 64 -56 8 3 12 68 14 220 l2 217 -1157 0 c-751 0
-1153 -4 -1143 -10 12 -8 9 -10 -12 -10 -16 0 -28 5 -28 10 0 6 -117 10 -330
10 -323 0 -330 0 -330 -20z m398 -1 l203 -1 -2 -289 -1 -290 -21 7 c-22 6 -42
26 -50 48 -2 6 -8 8 -12 4 -4 -4 -3 -14 4 -21 6 -8 9 -22 5 -31 -4 -10 -1 -16
9 -16 9 0 21 -8 27 -17 10 -16 11 -15 7 5 -3 12 -2 22 3 22 20 0 28 -32 27
-113 l-2 -88 -90 3 c-68 2 -89 6 -87 16 1 8 -2 11 -7 8 -5 -4 -12 0 -15 6 -3
7 -4 4 -1 -7 5 -20 1 -21 -161 -20 l-166 0 2 384 c0 211 3 389 7 394 3 5 31 6
62 3 31 -3 147 -6 259 -7z m2197 1 c3 -5 1 -19 -5 -30 -9 -16 -15 -19 -25 -10
-10 8 -14 8 -18 -2 -3 -8 -9 -3 -15 12 -6 17 -6 27 2 32 16 11 54 10 61 -2z
m-365 -31 c0 -18 -6 -29 -17 -32 -14 -4 -12 -5 5 -6 32 -2 27 -21 -5 -21 -22
0 -25 -2 -13 -10 13 -8 12 -10 -2 -10 -13 0 -18 8 -18 30 0 22 5 30 18 31 12
0 13 2 3 6 -11 5 -11 7 0 14 10 6 11 9 2 9 -7 0 -13 4 -13 8 0 4 9 8 20 8 15
0 20 -7 20 -27z m-1539 4 c0 -15 2 -15 9 2 6 14 8 4 8 -35 0 -30 -3 -45 -5
-33 -3 14 -9 20 -19 16 -10 -4 -14 4 -14 31 0 35 19 53 21 19z m69 3 c0 -8 9
-18 20 -21 11 -3 20 -12 20 -20 0 -7 3 -20 6 -29 4 -11 0 -16 -14 -16 -12 0
-24 -5 -28 -12 -4 -6 -3 -8 4 -4 6 3 13 2 16 -3 4 -5 -2 -12 -11 -14 -14 -4
-14 -5 3 -6 29 -1 37 -49 13 -73 -10 -9 -20 -14 -23 -10 -3 3 -6 0 -6 -6 0 -6
10 -12 23 -14 15 -2 21 -9 19 -23 -1 -11 -3 -28 -4 -37 -2 -12 -6 -14 -12 -8
-17 17 -26 11 -26 -15 0 -16 -6 -25 -15 -25 -20 0 -20 49 -1 56 12 5 11 12 -6
42 -15 28 -18 40 -9 53 7 13 7 19 -2 22 -9 3 -9 7 1 19 9 11 10 18 2 23 -5 3
-10 19 -10 36 0 21 5 29 18 30 10 0 12 3 5 6 -14 5 -18 45 -6 56 11 12 23 8
23 -7z m720 -6 c0 -14 -7 -20 -22 -21 l-23 -2 23 -4 c12 -2 22 -11 22 -19 0
-8 -10 -15 -22 -15 l-23 -2 23 -4 c23 -5 31 -32 10 -34 -10 0 -10 -2 0 -6 24
-9 12 -23 -20 -22 -20 1 -26 3 -14 6 11 3 15 8 8 12 -6 3 -13 19 -16 34 -3 20
-1 27 12 28 15 1 15 2 0 6 -20 5 -20 8 -12 41 8 29 54 32 54 2z m988 13 c-10
-2 -18 -9 -18 -14 0 -13 24 -11 38 3 20 20 24 2 8 -30 -17 -32 -44 -57 -34
-31 3 8 0 20 -7 26 -10 10 -14 9 -19 -3 -5 -14 -8 -13 -23 1 -16 16 -15 18 8
36 13 10 33 18 44 18 17 -1 17 -2 3 -6z m232 -14 c0 -11 -31 -12 -57 -2 -15 6
-13 8 12 13 33 7 45 4 45 -11z m-1128 -44 c-2 -16 -8 -31 -13 -33 -15 -6 -10
-34 7 -47 24 -17 9 -55 -22 -55 -26 0 -27 -1 -18 -24 3 -9 17 -16 30 -16 27 0
28 -3 14 -31 -12 -21 -40 -25 -57 -8 -6 6 -27 13 -47 16 -27 3 -38 1 -42 -11
-5 -13 -9 -14 -20 -5 -21 17 -17 39 6 39 11 0 20 4 20 9 0 5 9 7 20 4 11 -3
20 -1 20 5 0 6 -10 12 -22 14 -15 2 -24 11 -26 26 -3 19 1 22 27 22 27 0 31
-4 31 -26 0 -14 4 -23 10 -19 6 3 10 39 10 79 0 79 10 99 50 94 21 -3 25 -7
22 -33z m591 23 c6 -21 -4 -48 -19 -48 -9 0 -14 11 -14 30 0 30 24 43 33 18z
m827 -3 c0 -9 -9 -15 -25 -15 -18 0 -23 4 -19 15 4 8 15 15 25 15 10 0 19 -7
19 -15z m-2330 -10 c0 -9 7 -18 15 -21 21 -8 10 -22 -17 -20 -17 1 -24 8 -26
29 -2 19 1 27 12 27 9 0 16 -7 16 -15z m2264 -37 c5 -21 3 -28 -9 -28 -17 0
-18 4 -9 38 8 27 9 26 18 -10z m52 -12 c14 -15 19 -36 8 -36 -16 0 -44 23 -44
35 0 19 17 19 36 1z m-740 -36 c0 -19 -4 -26 -10 -20 -13 13 -29 13 -21 0 3
-5 -1 -10 -9 -10 -9 0 -16 9 -16 20 0 12 7 20 18 20 14 0 15 2 2 10 -12 8 -9
10 11 10 23 0 27 -4 25 -30z m-1526 -4 c0 -22 -16 -36 -41 -36 -10 0 -12 43
-2 53 3 4 15 7 25 7 12 0 18 -7 18 -24z m2170 -15 c0 -28 -17 -35 -29 -12 -8
14 -8 21 2 24 22 10 27 7 27 -12z m85 9 c-3 -5 1 -10 9 -10 12 0 16 -10 16
-40 0 -35 -3 -40 -22 -40 -19 0 -20 2 -8 10 13 8 12 10 -2 10 -12 0 -18 8 -18
24 0 31 10 56 22 56 5 0 6 -4 3 -10z m-45 -41 c0 -38 -24 -35 -28 4 -2 19 1
27 12 27 11 0 16 -10 16 -31z m-40 -59 c0 -47 2 -50 25 -50 15 0 25 -6 25 -14
0 -11 -12 -15 -40 -14 -22 0 -40 4 -40 9 0 5 5 9 10 9 6 0 10 5 10 11 0 7 -10
5 -25 -5 -14 -9 -25 -12 -25 -7 0 5 4 13 10 16 6 4 3 16 -7 32 -17 25 -17 26
6 18 18 -5 22 -3 21 12 -3 28 -1 33 15 33 11 0 15 -12 15 -50z m-2186 34 c9
-3 16 -17 16 -30 0 -20 -5 -24 -27 -23 -25 0 -26 1 -8 9 16 7 17 9 3 9 -11 1
-15 7 -11 21 6 22 6 22 27 14z m2296 -54 c0 -11 -6 -20 -12 -20 -9 0 -8 -4 2
-10 12 -8 9 -10 -12 -10 -23 0 -28 5 -28 23 0 28 7 37 32 37 11 0 18 -7 18
-20z m-2280 -31 c0 -15 -5 -20 -22 -17 -34 5 -37 38 -4 38 20 0 26 -5 26 -21z
m1560 -49 c0 -22 -4 -28 -15 -24 -8 4 -15 17 -15 30 0 15 6 24 15 24 10 0 15
-10 15 -30z m717 -8 c2 -26 -1 -32 -17 -32 -15 0 -19 6 -18 28 2 35 7 44 21
39 6 -2 13 -18 14 -35z m-757 3 c0 -8 -6 -15 -12 -16 -7 0 -4 -4 7 -9 17 -7
15 -9 -12 -9 -29 -1 -33 2 -33 24 0 20 5 25 25 25 16 0 25 -6 25 -15z m-1520
-17 c0 -18 -6 -23 -25 -23 -19 0 -25 5 -25 23 0 17 6 22 25 22 19 0 25 -5 25
-22z m97 -5 c-2 -21 -8 -29 -25 -31 -24 -4 -28 -36 -4 -38 6 -1 17 -2 22 -3 6
0 10 -14 10 -31 0 -23 -4 -30 -20 -30 -13 0 -20 -7 -20 -20 0 -13 7 -20 19
-20 12 0 20 -9 24 -26 3 -20 -1 -27 -19 -34 -30 -12 -31 -36 -3 -43 16 -4 20
-12 17 -34 -3 -24 -8 -28 -40 -31 -36 -3 -38 -2 -38 27 0 21 5 31 15 31 17 0
19 9 5 30 -9 13 -11 13 -20 0 -7 -11 -9 -4 -8 28 1 28 6 42 15 42 18 0 16 29
-2 37 -12 4 -15 19 -14 65 3 68 26 108 64 108 20 0 23 -5 22 -27z m1939 -8 c3
-18 -26 -29 -40 -15 -7 7 -5 10 7 10 9 0 16 3 16 8 -1 4 -1 11 0 16 1 13 14
-1 17 -19z m-2039 -75 l1 -51 -42 3 c-37 3 -41 5 -41 31 -1 15 4 28 10 28 5 1
15 2 20 4 6 1 17 3 25 4 13 1 13 2 0 11 -13 9 -13 11 0 19 22 15 27 6 27 -49z
m1527 44 c13 -34 7 -44 -26 -43 -28 0 -30 2 -13 9 11 5 15 9 9 9 -7 1 -14 10
-17 21 -4 16 0 20 18 20 13 0 26 -7 29 -16z m747 -51 c-11 -5 -11 -7 0 -14 10
-6 6 -9 -13 -9 -18 0 -28 5 -28 15 0 10 9 15 28 14 15 0 21 -3 13 -6z m-741
-13 c0 -6 -8 -14 -17 -17 -15 -6 -15 -7 3 -14 17 -7 17 -8 2 -8 -13 -1 -18 -9
-18 -31 0 -20 -5 -30 -15 -30 -17 0 -20 23 -5 51 7 13 7 19 0 19 -5 0 -10 9
-10 20 0 16 7 20 30 20 17 0 30 -5 30 -10z m734 -26 c9 -3 16 -13 16 -21 0
-21 -44 -12 -48 10 -4 18 6 21 32 11z m-2274 -34 c-10 -6 -11 -10 -2 -10 18 0
15 -47 -4 -54 -28 -11 -34 -6 -34 27 0 39 6 47 34 47 17 0 18 -2 6 -10z m2221
-44 c5 3 9 -2 9 -10 0 -9 -9 -16 -20 -16 -22 0 -23 1 -13 26 4 11 8 13 11 6 2
-7 8 -10 13 -6z m53 8 c25 -10 19 -34 -9 -34 -18 0 -25 5 -25 20 0 21 8 24 34
14z m-734 -30 c0 -11 -8 -14 -27 -12 -39 4 -42 28 -4 28 21 0 31 -5 31 -16z
m-1546 -20 c9 -3 16 -17 16 -30 0 -20 -5 -24 -27 -24 -22 0 -25 2 -13 10 8 5
10 10 3 10 -6 0 -9 9 -6 20 6 22 6 22 27 14z m2296 -24 c0 -25 -4 -30 -24 -30
-19 0 -23 4 -19 20 3 11 10 20 17 21 6 0 2 4 -9 9 -18 8 -17 9 8 9 24 1 27 -3
27 -29z m-270 0 c0 -5 -7 -10 -15 -10 -9 0 -12 -6 -9 -15 5 -11 11 -12 25 -4
14 7 19 6 19 -4 0 -23 -84 -17 -88 5 -2 13 1 16 12 12 10 -4 18 0 22 10 7 17
34 22 34 6z m-2010 -60 c0 -12 -7 -20 -17 -21 -15 0 -15 -2 2 -9 18 -8 18 -9
-5 -9 -21 -1 -25 4 -27 29 -2 26 1 30 22 30 18 0 25 -5 25 -20z m2270 10 c-10
-6 -11 -10 -2 -10 6 0 12 -7 12 -15 0 -9 -9 -15 -25 -15 -20 0 -25 5 -25 25 0
21 5 25 28 25 21 0 24 -2 12 -10z m-2194 -47 c-3 -8 3 -13 15 -13 31 0 23 -54
-8 -58 -25 -4 -33 -42 -10 -42 21 0 35 -20 30 -41 -3 -10 -14 -19 -24 -19 -28
0 -25 -38 3 -42 13 -2 24 -10 26 -19 3 -17 -30 -59 -47 -59 -21 0 -11 -18 14
-24 18 -5 25 -13 25 -31 0 -33 -15 -39 -45 -18 -32 23 -44 68 -44 166 0 59 4
80 15 84 17 6 19 44 2 41 -7 -2 -13 3 -12 10 1 6 2 21 3 31 0 11 9 22 19 24
12 3 10 5 -8 7 -23 1 -23 2 -5 10 29 11 56 8 51 -7z m1439 -13 c-11 -5 -14 -9
-7 -9 23 -2 12 -21 -13 -21 -18 0 -25 5 -25 20 0 16 6 20 33 19 27 0 29 -2 12
-9z m-1590 -10 c-4 -6 -1 -18 6 -27 11 -13 11 -15 -6 -12 -25 5 -34 49 -10 49
9 0 13 -5 10 -10z m65 0 c-10 -6 -11 -10 -2 -10 6 0 12 -7 12 -15 0 -8 -4 -15
-10 -15 -5 0 -10 -5 -10 -11 0 -5 5 -7 10 -4 12 7 14 -64 2 -81 -6 -9 -29 -11
-74 -5 -4 1 -7 12 -6 26 2 18 8 25 24 25 15 0 23 8 26 25 3 14 1 25 -3 25 -5
0 -9 11 -9 25 0 21 5 25 28 25 21 0 24 -2 12 -10z m1540 -70 c0 -14 -7 -20
-22 -21 l-23 -2 23 -4 c12 -2 22 -11 22 -19 0 -8 -10 -15 -22 -15 l-23 -2 23
-4 c24 -5 31 -23 8 -23 -8 0 -16 -6 -19 -12 -6 -17 -14 -8 -22 25 -6 22 -4 27
11 28 17 1 17 2 2 6 -22 6 -23 32 -2 40 13 5 13 7 2 14 -9 6 -4 9 15 9 20 0
27 -5 27 -20z m750 -35 c0 -9 -9 -15 -25 -15 -18 0 -23 4 -19 15 4 8 15 15 25
15 10 0 19 -7 19 -15z m-2280 -70 c0 -9 -9 -15 -25 -15 -16 0 -25 6 -25 15 0
9 9 15 25 15 16 0 25 -6 25 -15z m-22 -60 c-3 -25 0 -35 12 -39 8 -2 2 -4 -14
-5 -16 0 -27 1 -24 5 3 3 2 21 -2 40 -7 30 -6 34 12 34 17 0 20 -5 16 -35z
m2240 1 c6 -27 -6 -46 -23 -40 -15 6 -21 45 -8 58 11 10 28 1 31 -18z m-546
-6 c12 0 22 -9 26 -22 l5 -22 9 23 c4 12 13 19 19 16 5 -4 16 1 23 10 18 25
56 11 56 -20 0 -18 -8 -26 -35 -35 -19 -6 -43 -9 -54 -5 -12 3 -21 0 -25 -10
-3 -8 -16 -15 -30 -15 -22 0 -24 3 -23 50 1 27 4 45 5 40 2 -6 13 -10 24 -10z
m608 -20 c0 -35 -3 -40 -22 -40 -17 0 -19 3 -10 9 11 7 11 9 -2 14 -22 9 -20
37 2 38 14 0 14 2 -3 9 -18 8 -17 9 8 9 25 1 27 -2 27 -39z m-340 -42 c0 -23
-26 -34 -45 -18 -14 12 -10 40 9 52 14 10 36 -11 36 -34z m275 -48 c0 -17 -5
-30 -12 -30 -7 0 -13 8 -13 18 0 10 -5 23 -12 30 -9 9 -7 12 13 12 20 0 24 -5
24 -30z m-2165 -22 c0 -18 -5 -28 -15 -28 -10 0 -15 10 -15 28 0 19 5 29 15
29 10 0 15 -10 15 -29z m1718 -23 c-7 -8 -24 -15 -38 -17 -20 -2 -24 1 -22 17
6 41 12 47 37 41 17 -4 25 -2 26 6 1 7 4 2 6 -11 3 -13 -1 -29 -9 -36z m-86
19 c16 -6 15 -8 -6 -25 -32 -25 -36 -24 -36 12 0 21 4 29 13 25 6 -3 20 -9 29
-12z"/>
<path d="M167 1157 c-5 -19 -4 -20 6 -5 10 15 13 14 34 -10 13 -15 23 -22 23
-15 0 6 -5 15 -10 18 -13 8 -3 25 15 25 8 0 12 -6 9 -14 -3 -8 -1 -17 5 -21 7
-3 8 0 5 9 -3 9 -1 16 6 16 6 0 9 4 6 9 -4 5 -26 9 -50 9 -37 0 -45 -3 -49
-21z"/>
<path d="M470 1169 c0 -5 -4 -7 -10 -4 -5 3 -10 -3 -10 -14 0 -21 0 -21 25 1
29 25 30 28 10 28 -8 0 -15 -5 -15 -11z"/>
<path d="M129 1133 c14 -29 14 -31 -6 -36 -17 -4 -17 -4 1 -12 12 -5 21 -3 27
6 6 10 9 10 9 2 0 -7 8 -13 18 -13 13 0 14 -2 3 -9 -10 -6 -11 -17 -5 -37 l8
-29 4 28 c2 17 9 27 20 27 15 0 15 2 2 10 -12 8 -12 10 5 10 25 0 48 -35 50
-75 0 -17 5 -36 9 -43 12 -20 -2 -79 -21 -86 -9 -4 -20 -1 -25 6 -11 18 -10
30 2 23 6 -3 10 -2 10 3 0 5 -11 10 -25 10 -29 0 -32 -14 -8 -40 9 -11 11 -18
5 -18 -7 0 -12 -4 -12 -10 0 -14 37 -12 43 3 4 9 8 9 15 -2 8 -11 11 -9 17 8
3 11 10 21 15 21 5 0 7 9 5 20 -2 13 2 20 11 20 8 0 14 5 14 11 0 5 -4 8 -9 5
-4 -3 -14 13 -20 36 -10 33 -10 42 1 49 7 5 9 9 4 9 -6 0 -5 5 2 12 15 15 16
38 1 38 -5 0 -8 -4 -5 -9 3 -5 -4 -11 -15 -14 -15 -4 -23 0 -26 14 -4 14 -14
19 -40 19 -27 0 -42 8 -65 33 -20 21 -26 25 -19 10z"/>
<path d="M390 1133 c0 -16 -6 -18 -37 -15 l-37 5 29 -27 c27 -25 28 -27 8 -23
-23 5 -31 -7 -13 -18 6 -4 8 -11 5 -16 -3 -5 1 -6 9 -3 9 3 16 10 16 15 0 5
10 9 23 9 22 0 22 0 -3 20 -14 11 -20 20 -13 20 17 0 36 37 23 45 -5 3 -10 -2
-10 -12z"/>
<path d="M450 1073 c0 -6 4 -14 9 -17 5 -3 8 -21 6 -38 -3 -29 0 -33 21 -33
26 0 33 22 9 31 -8 4 -13 9 -11 13 3 4 -4 18 -15 31 -10 14 -19 20 -19 13z"/>
<path d="M510 1055 c0 -15 10 -31 25 -41 32 -21 43 -12 17 14 -11 11 -23 18
-26 15 -3 -4 -6 -2 -6 3 0 6 5 15 12 22 9 9 8 12 -5 12 -11 0 -17 -8 -17 -25z"/>
<path d="M127 1053 c-4 -3 1 -12 11 -19 16 -13 16 -13 -1 -14 -10 0 -17 -5
-15 -12 7 -21 25 -19 31 3 9 34 -7 61 -26 42z"/>
<path d="M400 1042 c0 -5 7 -12 15 -16 17 -6 20 -26 4 -26 -5 0 -7 5 -4 10 3
6 4 10 1 10 -9 0 -41 -35 -42 -46 -1 -5 -5 -19 -9 -31 -5 -17 -2 -23 9 -23 16
0 18 5 20 45 1 13 10 21 28 25 25 5 27 7 15 29 -12 25 -37 40 -37 23z"/>
<path d="M320 1009 c1 -14 28 -68 30 -59 4 16 5 58 1 55 -2 -3 -10 0 -18 6
-10 9 -13 8 -13 -2z"/>
<path d="M214 986 c-9 -19 -7 -25 8 -35 25 -16 47 -2 24 15 -10 7 -15 17 -12
23 4 5 3 12 -2 14 -4 3 -12 -5 -18 -17z"/>
<path d="M503 959 c30 -17 19 -27 -20 -18 -46 10 -79 11 -70 2 7 -6 31 -10 70
-12 10 -1 16 -4 14 -8 -3 -5 6 -8 19 -8 13 0 24 4 24 8 0 20 -22 47 -38 47
-16 -1 -16 -1 1 -11z"/>
<path d="M433 903 c-4 -10 -11 -21 -17 -25 -15 -11 26 -10 42 0 13 9 6 42 -9
42 -5 0 -13 -8 -16 -17z"/>
<path d="M336 850 c19 -36 30 -38 36 -5 6 30 2 35 -28 35 -22 0 -22 -1 -8 -30z"/>
<path d="M550 849 c0 -6 -7 -17 -15 -25 -18 -19 -20 -38 -2 -27 6 4 20 6 29 5
15 -3 16 1 7 27 -11 31 -19 40 -19 20z"/>
<path d="M259 825 c-3 -2 -27 -7 -53 -9 -27 -3 -54 -10 -60 -16 -8 -8 -2 -10
19 -8 17 2 30 -1 30 -7 0 -12 -45 -7 -62 7 -20 16 -17 -37 3 -56 16 -16 9 -21
-23 -17 -7 1 -13 -5 -13 -12 0 -8 8 -14 17 -13 10 0 19 -7 21 -18 3 -13 0 -17
-9 -14 -10 4 -14 -5 -16 -34 -1 -45 12 -40 46 17 19 34 19 34 0 40 -25 8 -25
25 0 25 11 0 23 5 27 12 5 7 3 8 -6 3 -7 -4 -16 -2 -21 6 -12 19 -11 29 2 29
5 0 7 -5 3 -11 -4 -7 0 -9 14 -5 11 4 23 2 27 -4 3 -5 17 -10 31 -10 25 0 33
-14 12 -24 -7 -3 -2 -3 11 0 16 4 21 3 17 -5 -4 -7 1 -11 13 -11 10 0 27 -3
37 -7 12 -4 15 -2 12 8 -3 8 -14 14 -26 14 -12 0 -27 7 -34 14 -10 11 -10 12
0 7 6 -4 12 -2 12 4 0 6 5 8 10 5 6 -3 10 3 10 14 0 22 7 26 28 13 7 -5 10
-16 6 -27 -5 -13 -3 -16 7 -13 23 8 23 39 0 45 -11 3 -18 9 -15 14 8 13 -10
11 -24 -3 -7 -7 -12 -8 -12 -3 0 5 -6 2 -12 -7 -7 -9 -24 -18 -37 -20 -20 -2
-25 2 -28 25 -3 19 1 27 11 27 8 0 18 -4 21 -10 3 -5 11 -10 16 -10 6 0 7 4 4
10 -3 6 1 7 9 4 20 -8 20 3 2 22 -16 15 -20 17 -27 9z"/>
<path d="M430 786 c0 -35 -7 -41 -38 -37 -10 2 -9 -5 5 -22 18 -24 18 -25 26
-4 4 11 15 26 24 33 15 10 16 14 3 30 -14 16 -13 17 3 11 10 -4 23 -7 28 -7 5
0 9 -7 9 -15 0 -8 5 -15 11 -15 5 0 7 -5 3 -12 -4 -7 -3 -8 5 -4 19 12 -23 70
-54 74 -23 3 -25 0 -25 -32z"/>
<path d="M555 740 c-4 -6 -12 -9 -19 -7 -7 3 -12 -4 -13 -17 0 -11 1 -16 4 -9
2 7 11 9 19 6 7 -3 17 2 20 11 8 20 -1 32 -11 16z"/>
<path d="M457 723 c-8 -13 7 -84 18 -83 5 1 11 -3 13 -9 2 -7 -4 -9 -15 -5
-17 5 -17 5 0 -9 21 -17 13 -47 -13 -47 -25 0 -33 15 -20 40 8 16 8 18 -4 14
-20 -8 -26 -27 -12 -45 16 -22 42 -29 55 -16 9 9 13 6 17 -11 8 -27 24 -29 19
-2 -2 11 0 20 6 20 5 0 9 7 9 15 0 8 -4 15 -9 15 -5 0 -17 20 -26 45 -14 34
-15 48 -6 59 9 11 8 15 -5 20 -20 8 -22 8 -27 -1z"/>
<path d="M410 672 c0 -11 9 -22 19 -25 24 -6 22 21 -2 35 -13 7 -17 5 -17 -10z"/>
<path d="M344 645 c-15 -11 -16 -15 -4 -16 8 -1 18 -1 22 0 4 0 5 -6 2 -14 -4
-8 -1 -15 5 -15 13 0 15 46 2 54 -4 3 -17 -1 -27 -9z"/>
<path d="M227 643 c-12 -12 -7 -33 13 -53 19 -19 20 -19 30 -1 7 14 6 22 -5
31 -11 9 -15 9 -15 1 0 -6 -5 -11 -11 -11 -6 0 -8 9 -4 20 6 20 4 25 -8 13z"/>
<path d="M166 604 c-7 -17 21 -31 34 -18 6 6 2 14 -9 21 -16 10 -20 9 -25 -3z"/>
<path d="M281 563 c-1 -7 -7 -10 -15 -7 -11 4 -13 0 -9 -15 3 -12 9 -21 14
-21 13 0 22 26 16 42 -4 10 -6 10 -6 1z"/>
<path d="M205 550 c-4 -6 -16 -8 -28 -5 -17 4 -16 2 5 -10 18 -10 26 -21 23
-35 -2 -12 2 -20 9 -20 9 0 12 12 11 36 -3 39 -10 51 -20 34z"/>
<path d="M312 538 c-15 -15 -16 -42 -2 -33 6 4 13 -8 16 -25 4 -17 10 -28 15
-23 5 5 3 27 -4 51 -10 33 -15 40 -25 30z"/>
<path d="M390 541 c0 -5 -7 -11 -17 -13 -14 -3 -14 -5 2 -18 11 -8 16 -10 12
-4 -4 7 2 13 16 16 38 7 55 -1 50 -23 -3 -11 0 -19 6 -19 7 0 9 -4 6 -10 -3
-5 0 -7 9 -4 19 7 26 27 19 54 -4 16 -8 18 -14 8 -7 -11 -9 -11 -9 0 0 9 -7
11 -20 7 -11 -4 -20 -2 -20 4 0 6 -9 11 -20 11 -11 0 -20 -4 -20 -9z"/>
<path d="M110 520 c-8 -15 -6 -24 9 -39 16 -16 21 -17 25 -5 3 8 0 13 -7 11
-8 -1 -11 8 -9 26 3 32 -3 35 -18 7z"/>
<path d="M140 521 c0 -10 9 -21 20 -24 12 -3 20 0 20 7 0 6 -9 17 -20 24 -17
11 -20 10 -20 -7z"/>
<path d="M530 493 c0 -6 6 -13 13 -16 9 -3 9 -7 -2 -20 -11 -15 -11 -17 2 -17
26 0 28 16 7 41 -11 13 -19 19 -20 12z"/>
<path d="M970 1191 c1 -10 27 -41 34 -41 4 0 5 4 1 9 -3 5 -1 12 5 16 18 11
11 23 -15 23 -14 0 -25 -3 -25 -7z"/>
<path d="M1255 1180 c3 -5 13 -10 21 -10 8 0 14 -4 14 -10 0 -5 -6 -10 -14
-10 -8 0 -18 5 -21 10 -3 6 -11 10 -16 10 -6 0 -7 -5 -3 -11 7 -13 11 -35 13
-86 1 -36 31 -48 31 -13 0 11 -5 20 -12 20 -7 0 -5 7 5 18 8 9 16 22 18 27 1
6 13 15 28 21 l26 11 -27 6 c-16 4 -28 12 -28 17 0 6 -9 10 -21 10 -11 0 -17
-4 -14 -10z"/>
<path d="M1060 1131 c0 -31 -4 -40 -21 -44 -22 -6 -18 -27 5 -27 7 0 18 -11
24 -25 6 -14 17 -25 23 -25 8 0 8 4 -1 15 -10 12 -10 18 0 30 10 12 10 15 -4
15 -19 0 -21 11 -3 29 10 11 10 14 0 18 -15 6 -17 33 -3 33 6 0 10 5 10 10 0
6 -7 10 -15 10 -11 0 -15 -11 -15 -39z"/>
<path d="M1150 1151 c0 -11 4 -22 10 -26 5 -3 6 -13 3 -22 -4 -11 -2 -14 8
-11 15 6 15 9 4 43 -6 18 -5 18 5 3 11 -18 40 -25 40 -10 0 8 -52 42 -64 42
-3 0 -6 -9 -6 -19z"/>
<path d="M1926 1135 c9 -23 -16 -38 -31 -19 -6 9 -18 12 -28 8 -19 -7 -23 -29
-7 -39 6 -3 10 1 10 9 0 9 5 16 10 16 6 0 10 -10 10 -22 0 -19 2 -20 11 -8 9
12 10 10 6 -9 l-6 -23 25 23 c28 26 34 7 7 -24 -18 -20 -18 -20 10 -2 19 12
27 14 27 5 0 -9 7 -7 20 5 12 10 19 24 16 31 -3 7 -1 15 5 18 5 2 4 3 -3 2 -7
-2 -12 -11 -12 -20 1 -9 0 -16 -2 -16 -10 0 -49 47 -49 59 0 8 -6 16 -13 19
-8 2 -10 -2 -6 -13z"/>
<path d="M1700 1105 c0 -10 -5 -13 -12 -9 -7 4 -10 4 -6 -1 4 -4 2 -17 -3 -28
-9 -16 -13 -17 -21 -6 -8 12 -9 11 -5 -1 2 -9 14 -14 26 -13 19 3 22 -1 19
-25 -3 -25 -6 -27 -43 -25 -31 2 -35 0 -15 -5 22 -7 23 -9 7 -15 -10 -4 -15
-12 -11 -18 4 -8 9 -7 15 2 6 10 9 7 9 -11 l1 -25 10 25 10 25 14 -25 c8 -14
10 -29 5 -34 -5 -5 -3 -15 5 -22 16 -16 105 -19 105 -4 0 6 9 10 19 10 18 0
37 27 26 38 -2 3 -7 -2 -11 -11 -3 -9 -12 -13 -20 -10 -13 5 -12 8 2 24 9 11
12 19 6 19 -6 0 -14 -4 -17 -10 -3 -5 -11 -10 -16 -10 -6 0 -7 5 -4 10 3 6 -1
10 -9 10 -9 0 -16 5 -16 10 0 6 7 10 16 10 14 0 14 3 4 15 -10 12 -10 15 1 15
11 0 11 2 -1 10 -14 9 -7 14 13 11 5 -1 5 4 1 10 -9 16 18 30 33 17 10 -8 13
-7 13 3 0 26 -12 59 -22 59 -5 0 -6 -5 -2 -12 5 -7 2 -9 -7 -6 -8 3 -23 2 -34
-3 -16 -6 -16 -8 -3 -8 24 -1 16 -30 -13 -44 -25 -13 -34 -44 -11 -39 6 1 12
-2 12 -8 0 -5 -7 -10 -15 -10 -8 0 -15 -5 -15 -10 0 -7 -7 -7 -21 0 -16 9 -18
14 -8 26 9 11 8 20 -6 40 -16 25 -16 25 5 14 16 -8 20 -9 16 -1 -4 6 0 14 8
17 24 9 19 26 -5 19 -14 -5 -19 -3 -15 3 3 6 2 13 -4 17 -5 3 -10 -1 -10 -10z
m69 -154 c11 -7 11 -10 0 -16 -9 -6 -8 -10 7 -15 15 -6 13 -8 -13 -12 -30 -4
-32 -2 -30 24 2 29 12 34 36 19z"/>
<path d="M952 1103 c-19 -4 -21 -7 -11 -19 9 -11 9 -14 0 -14 -7 0 -9 -5 -6
-10 4 -6 16 -8 27 -4 13 4 24 1 29 -7 7 -11 9 -11 9 2 0 9 -7 19 -15 23 -8 3
-12 12 -9 21 3 8 5 14 3 14 -2 -1 -14 -4 -27 -6z"/>
<path d="M863 1049 c-1 -14 5 -19 23 -19 17 0 24 -5 24 -20 0 -13 9 -22 25
-26 29 -7 40 -1 30 16 -5 8 -10 8 -20 0 -9 -8 -15 -8 -20 0 -3 5 -1 10 4 10
22 0 10 17 -27 38 -37 20 -38 20 -39 1z"/>
<path d="M970 1024 c0 -11 29 -34 43 -34 8 0 17 9 20 21 5 17 3 18 -9 8 -11
-9 -18 -9 -26 -1 -13 13 -28 16 -28 6z"/>
<path d="M1865 1017 c-22 -17 -14 -47 14 -47 24 0 36 29 18 47 -11 11 -16 11
-32 0z"/>
<path d="M1133 981 c-9 -13 -14 -14 -32 -3 -14 8 -21 8 -21 1 0 -5 -4 -7 -10
-4 -6 3 -7 -1 -4 -9 3 -9 15 -16 26 -16 10 0 17 -4 14 -9 -4 -5 0 -12 6 -14 7
-3 -5 -6 -27 -6 -22 -1 -50 -4 -62 -7 -15 -4 -23 -2 -23 6 0 7 6 10 13 7 6 -2
21 -1 32 3 19 7 19 8 -5 18 -15 6 -32 6 -42 1 -10 -6 -19 -5 -23 1 -3 5 -12 7
-20 3 -8 -3 -15 0 -15 6 0 6 -5 11 -12 11 -6 0 -4 -8 6 -19 10 -11 24 -17 32
-14 8 3 14 -1 14 -11 0 -18 -15 -22 -25 -6 -3 6 -18 10 -33 10 l-27 0 24 -19
c18 -14 21 -20 10 -24 -25 -10 24 -8 60 3 23 6 39 6 47 -1 12 -10 144 -10 144
1 0 3 -9 11 -20 18 -12 7 -18 17 -15 21 3 5 -1 12 -7 14 -9 4 -5 12 11 25 18
15 20 20 9 24 -8 3 -19 -1 -25 -11z"/>
<path d="M1259 968 c0 -2 -2 -11 -4 -21 -5 -28 -13 -31 -31 -16 -16 13 -17 11
-12 -13 3 -15 0 -29 -6 -32 -6 -2 19 -5 55 -5 65 -1 67 0 72 27 6 32 -10 55
-35 49 -10 -3 -18 -1 -18 4 0 8 -19 14 -21 7z"/>
<path d="M855 900 c-3 -5 -4 -14 -1 -19 9 -13 46 -1 46 15 0 16 -36 19 -45 4z"/>
<path d="M1853 823 c4 -3 2 -12 -4 -20 -9 -10 -7 -13 10 -13 14 0 21 6 21 20
0 12 -7 20 -17 20 -9 0 -13 -3 -10 -7z"/>
<path d="M1191 778 c1 -39 2 -40 8 -13 l7 30 7 -27 c8 -32 23 -37 30 -10 4 16
5 16 6 0 2 -36 21 -16 21 22 0 46 -16 52 -31 13 l-11 -28 -10 28 c-14 40 -28
33 -27 -15z"/>
<path d="M1520 779 c0 -39 1 -40 33 -37 27 2 32 7 32 28 0 34 -13 50 -41 50
-21 0 -24 -5 -24 -41z"/>
<path d="M1297 794 c-4 -4 -7 -18 -7 -31 0 -18 5 -23 26 -23 22 0 25 4 22 27
-3 27 -26 41 -41 27z m31 -27 c2 -10 -3 -17 -12 -17 -10 0 -16 9 -16 21 0 24
23 21 28 -4z"/>
<path d="M1361 770 c6 -16 15 -30 19 -30 4 0 13 14 19 30 6 18 6 30 0 30 -5 0
-9 -7 -9 -15 0 -8 -4 -15 -10 -15 -5 0 -10 7 -10 15 0 8 -4 15 -9 15 -6 0 -6
-12 0 -30z"/>
<path d="M1454 785 c-9 -23 3 -45 26 -45 16 0 20 7 20 30 0 23 -4 30 -20 30
-11 0 -23 -7 -26 -15z"/>
<path d="M1650 790 c0 -5 7 -7 15 -4 8 4 15 2 15 -4 0 -5 -9 -12 -21 -15 -27
-7 -15 -27 15 -27 22 0 25 8 17 53 -2 11 -41 9 -41 -3z"/>
<path d="M1712 770 c1 -16 6 -30 10 -30 4 0 8 14 8 30 0 17 -5 30 -10 30 -6 0
-9 -13 -8 -30z"/>
<path d="M1751 768 c1 -21 3 -26 6 -13 8 34 23 41 23 12 0 -15 5 -27 11 -27 6
0 9 12 7 28 -2 19 -9 28 -25 30 -20 3 -23 -1 -22 -30z"/>
<path d="M2383 775 c-23 -10 -31 -25 -14 -25 5 0 16 -7 24 -15 13 -12 15 -12
20 5 3 11 1 20 -4 20 -5 0 -9 5 -9 10 0 7 6 7 19 0 25 -13 31 -13 31 3 0 14
-36 16 -67 2z"/>
<path d="M925 767 c-7 -18 9 -47 27 -47 7 0 7 4 0 13 -5 6 -12 21 -14 32 -5
18 -6 19 -13 2z"/>
<path d="M1955 680 c-4 -6 -15 -8 -26 -5 -12 4 -19 2 -19 -8 0 -7 6 -14 13
-15 6 0 21 -2 32 -4 14 -2 21 3 23 20 3 23 -12 30 -23 12z"/>
<path d="M1480 660 c0 -11 7 -20 15 -20 8 0 15 8 15 18 0 14 2 15 10 2 5 -8
12 -11 16 -7 10 10 1 17 -30 23 -21 3 -26 1 -26 -16z"/>
<path d="M1730 665 c0 -22 18 -27 29 -8 6 10 11 13 11 7 0 -7 7 -15 16 -18 11
-4 14 -1 12 11 -4 21 -68 29 -68 8z"/>
<path d="M1870 661 c0 -12 6 -21 16 -21 9 0 14 7 12 17 -5 25 -28 28 -28 4z"/>
<path d="M1516 605 c-3 -8 -11 -15 -18 -15 -9 0 -8 3 2 10 13 8 12 10 -3 10
-28 0 -14 -24 14 -27 18 -1 25 4 26 18 2 23 -12 25 -21 4z"/>
<path d="M1070 595 c0 -6 14 -12 30 -12 17 0 26 4 19 7 -8 6 -7 9 2 12 8 3 -1
5 -18 5 -19 0 -33 -6 -33 -12z"/>
<path d="M1195 600 c-7 -12 -8 -11 33 -15 24 -2 32 1 32 14 0 14 -2 14 -10 1
-6 -10 -10 -11 -10 -2 0 14 -36 16 -45 2z"/>
<path d="M1590 595 c0 -7 11 -12 25 -12 14 0 25 5 25 12 0 7 -11 13 -25 13
-14 0 -25 -6 -25 -13z"/>
<path d="M1710 594 c0 -7 12 -12 28 -12 16 1 29 6 29 13 0 6 -13 12 -29 12
-16 0 -28 -6 -28 -13z"/>
<path d="M1776 602 c-8 -13 11 -35 23 -28 16 10 14 36 -3 36 -8 0 -17 -4 -20
-8z"/>
<path d="M1940 591 c0 -13 2 -13 9 -2 6 9 11 10 15 2 10 -15 26 -14 26 3 0 8
-10 14 -25 14 -16 0 -25 -6 -25 -17z"/>
<path d="M1590 524 c0 -31 22 -28 27 4 2 14 -2 22 -12 22 -9 0 -15 -10 -15
-26z"/>
<path d="M1770 526 c0 -7 -7 -19 -15 -26 -8 -7 -15 -16 -15 -21 0 -15 28 2 44
26 13 20 13 24 1 29 -9 3 -15 0 -15 -8z"/>
<path d="M1330 440 l0 -50 159 0 c154 0 207 8 223 33 15 23 8 29 -17 13 -33
-22 -35 -21 -35 19 l0 35 -165 0 -165 0 0 -50z m320 0 l0 -40 -155 0 -155 0 0
40 0 40 155 0 155 0 0 -40z"/>
<path d="M1362 446 c-3 -5 3 -6 13 -2 14 5 15 4 7 -7 -9 -10 -5 -13 18 -15 16
-1 31 2 35 8 9 14 42 12 49 -2 3 -7 5 -5 3 5 -2 16 -12 19 -60 20 -33 1 -61
-2 -65 -7z"/>
<path d="M1501 445 c-1 -15 5 -20 23 -20 13 0 22 4 19 9 -4 5 0 6 7 1 25 -16
80 -14 80 2 0 12 -12 14 -60 11 -34 -2 -62 1 -64 7 -3 6 -5 1 -5 -10z"/>
<path d="M922 421 c-14 -15 2 -16 168 -19 102 -1 190 0 197 2 17 7 5 36 -16
36 -12 0 -13 -2 -3 -9 10 -6 9 -10 -7 -14 -12 -3 -19 -1 -16 3 10 16 -35 21
-171 19 -108 -2 -140 -6 -152 -18z"/>
<path d="M2565 430 c4 -6 0 -10 -8 -10 -20 0 -28 -25 -14 -40 9 -10 9 -12 -4
-7 -9 3 -16 0 -16 -9 0 -16 6 -17 26 -5 7 5 11 13 7 19 -10 16 21 41 44 35 31
-8 23 4 -10 16 -18 6 -28 6 -25 1z"/>
<path d="M1815 422 c-44 -2 -84 -7 -89 -12 -11 -11 67 -11 179 -1 61 6 65 7
30 11 -22 3 -76 4 -120 2z"/>
<path d="M2340 385 c0 -14 -4 -25 -10 -25 -5 0 -10 -7 -10 -15 0 -12 -4 -13
-19 -6 -10 6 -21 7 -25 4 -14 -14 -4 -21 34 -21 l40 -1 0 45 c0 24 -2 44 -5
44 -3 0 -5 -11 -5 -25z"/>
<path d="M2736 389 c-18 -18 -18 -18 4 -14 13 2 28 1 34 -3 20 -12 35 -10 29
4 -3 8 -13 14 -23 14 -10 0 -20 4 -22 9 -1 4 -12 0 -22 -10z"/>
<path d="M313 357 c-4 -8 -16 -16 -25 -20 -23 -8 -24 -69 -2 -91 8 -9 11 -16
5 -16 -7 0 -11 -20 -10 -47 0 -27 3 -41 6 -33 3 8 14 34 24 58 11 24 17 47 14
52 -3 5 -1 11 5 15 13 8 13 25 0 25 -5 0 -10 -5 -10 -11 0 -6 -6 -17 -14 -24
-12 -12 -14 -9 -18 20 -3 27 -1 32 9 23 13 -11 16 -7 26 40 6 25 2 28 -10 9z"/>
<path d="M495 349 c11 -39 36 -93 52 -111 8 -9 12 -23 8 -30 -6 -10 -5 -10 4
-2 10 9 6 28 -16 84 -15 40 -34 75 -42 78 -10 3 -11 -2 -6 -19z"/>
<path d="M880 331 c12 -23 30 -36 30 -22 0 21 -13 41 -26 41 -11 0 -12 -4 -4
-19z"/>
<path d="M920 336 c0 -8 5 -18 10 -21 6 -3 10 1 10 9 0 19 17 21 22 4 3 -7 7
-6 11 5 5 14 1 17 -23 17 -19 0 -30 -5 -30 -14z"/>
<path d="M987 343 c-13 -12 -7 -33 8 -33 8 0 15 7 15 16 0 11 6 14 20 9 11 -3
28 -2 37 4 14 8 8 10 -28 11 -25 0 -49 -3 -52 -7z"/>
<path d="M1126 341 c-3 -5 0 -14 8 -20 11 -9 18 -8 30 4 14 15 18 15 38 1 12
-9 19 -16 14 -16 -5 0 -3 -8 5 -17 25 -32 38 -60 35 -79 -2 -11 -1 -13 1 -6 3
6 8 12 13 12 5 0 10 -6 13 -12 2 -7 8 -9 13 -5 5 4 4 11 -1 15 -6 4 -25 26
-43 50 -26 32 -29 42 -16 42 11 0 14 5 10 16 -3 9 -6 18 -6 20 0 8 -109 4
-114 -5z"/>
<path d="M1362 175 l3 -175 33 0 c17 0 32 5 32 11 0 6 -8 8 -19 4 -11 -3 -22
-1 -26 5 -4 6 12 10 44 10 28 0 51 4 51 9 0 5 -9 7 -20 4 -17 -5 -20 0 -20 31
0 26 4 36 16 36 8 0 12 5 9 10 -9 14 -35 -7 -35 -26 0 -8 -9 -14 -21 -14 -30
0 -23 54 9 58 12 2 22 6 22 10 0 4 12 8 26 9 36 2 40 12 38 93 l-2 70 27 -6
c33 -9 41 -13 41 -25 0 -5 -11 -9 -25 -9 -18 0 -25 -5 -25 -20 0 -15 7 -20 26
-20 20 0 25 -4 20 -16 -3 -9 -6 -27 -6 -40 0 -17 -6 -24 -20 -24 -27 0 -26
-18 2 -22 16 -2 22 -10 23 -31 0 -22 -4 -27 -22 -27 -16 0 -23 -6 -23 -19 0
-11 -12 -23 -31 -31 -22 -10 -27 -15 -17 -21 21 -14 41 -10 35 5 -6 15 17 24
46 18 11 -2 16 -9 13 -18 -3 -8 1 -14 9 -14 13 0 15 26 15 159 0 88 3 166 6
175 5 14 -3 16 -55 16 -34 0 -61 -4 -61 -10 0 -5 -12 -10 -27 -9 -25 0 -26 1
-8 9 15 6 6 9 -33 9 l-52 1 2 -175z m118 130 c0 -8 -8 -16 -17 -16 -17 -1 -17
-2 0 -6 9 -2 17 -13 17 -24 0 -14 -7 -19 -27 -19 -22 0 -25 2 -13 10 8 5 10
10 4 10 -19 0 -25 40 -6 41 14 0 13 2 -3 9 -17 7 -15 9 13 9 22 1 32 -4 32
-14z m-22 -75 c18 0 22 -6 22 -31 0 -27 -3 -30 -27 -27 -22 2 -27 8 -25 25 2
12 -2 24 -8 28 -6 4 -10 -4 -10 -19 0 -14 -4 -26 -10 -26 -5 0 -10 14 -10 31
0 28 3 31 23 25 12 -3 32 -6 45 -6z"/>
<path d="M1880 341 c0 -4 10 -8 22 -7 14 1 27 -8 35 -24 7 -14 13 -20 13 -13
0 7 7 10 15 7 21 -8 19 2 -5 26 -20 20 -80 28 -80 11z"/>
<path d="M1960 339 c0 -5 5 -7 12 -3 6 4 17 -1 25 -11 12 -18 13 -18 13 -1 0
13 6 17 19 13 10 -2 25 -1 32 4 9 5 -7 9 -43 9 -34 0 -58 -4 -58 -11z"/>
<path d="M2436 334 c-11 -28 -6 -54 9 -54 13 0 13 3 3 20 -16 25 0 40 18 16
13 -18 14 -18 20 -2 4 11 1 22 -7 27 -21 13 -36 11 -43 -7z"/>
<path d="M2550 340 c-14 -4 -18 -9 -10 -10 8 -1 26 -3 38 -6 15 -3 22 0 20 8
-6 16 -18 18 -48 8z"/>
<path d="M177 326 c-3 -8 -2 -18 3 -21 5 -3 9 -25 10 -48 0 -23 4 -60 9 -82 8
-31 9 -18 5 55 -5 92 -15 128 -27 96z"/>
<path d="M1266 308 c25 -44 54 -56 54 -23 0 9 -6 12 -15 9 -8 -4 -17 1 -21 10
-3 9 -10 16 -16 16 -5 0 -6 -6 -2 -12z"/>
<path d="M2035 310 c-4 -6 -2 -17 4 -24 6 -7 8 -16 4 -19 -3 -4 -3 -7 0 -7 3
0 11 9 16 19 12 22 -11 52 -24 31z"/>
<path d="M850 290 c0 -5 11 -10 24 -10 27 0 59 -31 39 -37 -20 -7 -15 -30 8
-36 11 -3 23 -15 26 -26 6 -24 23 -28 23 -6 0 8 -4 15 -10 15 -5 0 -10 11 -10
25 0 30 -52 85 -80 85 -11 0 -20 -4 -20 -10z"/>
<path d="M1063 278 c5 -14 1 -18 -16 -18 -13 0 -28 5 -35 12 -16 16 -15 -3 2
-24 16 -21 82 -26 69 -5 -4 6 -8 18 -9 25 -2 8 -6 17 -10 20 -4 4 -4 -1 -1
-10z"/>
<path d="M1164 269 c-3 -6 -15 -9 -25 -6 -23 6 -31 -4 -19 -23 7 -11 11 -11
24 -1 13 11 19 11 34 0 14 -11 15 -11 5 1 -18 19 -16 33 2 26 8 -3 15 -1 15 4
0 14 -27 13 -36 -1z"/>
<path d="M457 238 c16 -20 11 -47 -9 -54 -10 -3 -16 -10 -13 -15 4 -5 17 2 31
15 23 21 24 26 13 45 -8 11 -18 21 -23 21 -4 0 -4 -6 1 -12z"/>
<path d="M2040 231 c0 -5 7 -14 15 -21 12 -10 13 -16 4 -26 -8 -10 -8 -14 -1
-14 19 0 22 16 9 44 -12 25 -27 35 -27 17z"/>
<path d="M153 170 c2 -43 9 -75 21 -93 10 -15 19 -38 19 -52 0 -26 14 -34 23
-12 8 22 -12 92 -25 89 -8 -2 -10 4 -6 18 4 14 1 28 -10 40 -10 11 -15 25 -12
33 3 8 1 20 -4 28 -5 9 -7 -11 -6 -51z"/>
<path d="M1873 219 c9 -6 23 -7 30 -4 6 4 4 0 -5 -8 -10 -8 -18 -17 -18 -21 0
-11 27 -6 39 8 14 17 1 28 -39 32 -21 3 -22 1 -7 -7z"/>
<path d="M1311 207 c-18 -18 -13 -27 14 -27 15 0 25 6 25 14 0 19 -25 27 -39
13z"/>
<path d="M2770 206 c0 -18 14 -27 54 -36 17 -4 30 -12 28 -19 -1 -7 2 -9 8 -6
8 5 6 13 -4 24 -9 10 -13 21 -9 25 4 4 -1 4 -11 0 -15 -6 -17 -4 -11 6 6 10 4
12 -8 7 -10 -3 -17 -2 -17 3 0 6 -7 10 -15 10 -8 0 -15 -6 -15 -14z"/>
<path d="M1074 196 c-32 -18 -55 -38 -49 -44 3 -3 0 -11 -6 -19 -9 -10 -8 -17
2 -29 11 -14 14 -13 23 3 14 25 15 53 2 53 -6 0 4 9 22 20 17 11 32 22 32 25
0 6 1 6 -26 -9z"/>
<path d="M1127 186 c-7 -18 1 -26 25 -26 13 0 18 6 16 17 -4 22 -34 29 -41 9z"/>
<path d="M468 136 c-31 -62 -34 -76 -17 -76 6 0 9 6 6 14 -3 8 3 23 13 34 10
11 16 23 12 28 -4 4 -2 4 4 1 7 -4 10 -28 9 -58 -2 -33 0 -47 6 -38 10 16 10
79 0 122 -6 28 -7 27 -33 -27z"/>
<path d="M1940 165 c0 -17 24 -75 31 -75 10 0 -8 61 -21 74 -5 5 -10 6 -10 1z"/>
<path d="M1083 143 c-3 -10 -8 -21 -10 -25 -2 -4 2 -10 8 -14 8 -4 9 -3 5 4
-5 8 1 12 17 12 28 0 43 25 21 34 -25 10 -34 7 -41 -11z"/>
<path d="M868 123 c6 -31 21 -39 40 -20 12 13 13 19 3 31 -20 24 -48 16 -43
-11z"/>
<path d="M1271 137 c-1 -11 5 -17 16 -15 10 2 19 -5 22 -19 6 -21 6 -21 26 5
15 21 15 24 2 13 -15 -12 -17 -11 -17 8 0 18 -3 20 -19 11 -14 -7 -21 -6 -24
3 -3 7 -6 4 -6 -6z"/>
<path d="M1484 105 c-4 -11 -15 -26 -23 -33 -13 -10 -11 -11 10 -3 15 5 30 7
33 4 10 -10 7 21 -4 37 -7 12 -10 11 -16 -5z"/>
<path d="M392 89 c10 -17 10 -23 1 -26 -7 -3 -13 -14 -13 -26 0 -24 11 -14 27
24 9 21 8 27 -8 37 -18 12 -18 11 -7 -9z"/>
<path d="M956 64 c-5 -13 13 -34 29 -34 5 0 3 5 -5 10 -8 5 -10 10 -4 10 7 0
14 6 17 13 3 7 -3 13 -14 13 -10 0 -21 -6 -23 -12z"/>
<path d="M1265 70 c4 -7 -2 -9 -19 -4 -32 8 -35 -11 -3 -21 12 -4 25 -7 30 -6
4 1 7 -9 7 -21 0 -16 3 -19 11 -11 8 8 6 19 -5 42 -9 17 -19 31 -22 31 -3 0
-2 -5 1 -10z"/>
<path d="M1800 69 c0 -5 -4 -8 -9 -4 -13 7 -9 -48 4 -57 6 -4 15 -8 20 -8 6 0
3 5 -5 10 -12 7 -13 15 -3 40 6 16 7 30 2 30 -5 0 -9 -5 -9 -11z"/>
<path d="M1960 73 c23 -9 38 -34 32 -55 -3 -13 1 -18 14 -18 15 0 16 2 5 9
-10 7 -10 10 -1 13 9 3 8 9 -4 21 -10 9 -12 17 -6 17 6 0 8 5 5 10 -3 6 -18
10 -33 9 -16 0 -21 -3 -12 -6z"/>
<path d="M890 57 c0 -4 7 -19 16 -33 12 -17 20 -21 29 -14 6 5 15 7 18 3 4 -3
7 -1 7 6 0 7 -9 11 -20 9 -10 -2 -26 6 -34 17 -9 11 -16 16 -16 12z"/>
<path d="M1052 38 c-24 -24 -13 -38 28 -38 41 0 52 14 28 38 -15 15 -41 15
-56 0z"/>
<path d="M276 24 c-8 -22 -3 -26 24 -22 22 3 22 3 2 21 -18 17 -20 17 -26 1z"/>
</g>
</svg>
